<?xml version="1.0" encoding="UTF-8" standalone="no"?>
<!-- Created with Inkscape (http://www.inkscape.org/) -->

<svg
   width="176.12823mm"
   height="101.03547mm"
   viewBox="0 0 176.12823 101.03547"
   version="1.1"
   id="svg1"
   xml:space="preserve"
   xmlns:inkscape="http://www.inkscape.org/namespaces/inkscape"
   xmlns:sodipodi="http://sodipodi.sourceforge.net/DTD/sodipodi-0.dtd"
   xmlns="http://www.w3.org/2000/svg"
   xmlns:svg="http://www.w3.org/2000/svg"><sodipodi:namedview
     id="namedview1"
     pagecolor="#ffffff"
     bordercolor="#000000"
     borderopacity="0.25"
     inkscape:showpageshadow="2"
     inkscape:pageopacity="0.0"
     inkscape:pagecheckerboard="0"
     inkscape:deskcolor="#d1d1d1"
     inkscape:document-units="mm"
     showgrid="false"><inkscape:page
       x="0"
       y="-2.3623527e-14"
       width="176.12823"
       height="101.03548"
       id="page2"
       margin="0"
       bleed="0" /></sodipodi:namedview><defs
     id="defs1" /><g
     inkscape:label="Calque 1"
     inkscape:groupmode="layer"
     id="layer1"
     transform="translate(-16.077513,-69.746671)"><path
       style="fill:#55668e;stroke-width:0.67901"
       d="m 140.93008,170.19921 c -10.61571,-0.6994 -20.69753,-4.49704 -28.86054,-10.87123 -9.91039,-7.73866 -16.452607,-18.74296 -18.394616,-30.94059 -0.343083,-2.15488 -0.517853,-4.27721 -0.575637,-6.9902 -0.157802,-7.40855 0.804925,-13.30248 3.209103,-19.64647 0.857182,-2.261876 2.871159,-6.266003 4.21478,-8.379673 3.74385,-5.889529 8.88578,-11.141059 14.63159,-14.943461 7.00044,-4.632688 14.62474,-7.408813 23.19491,-8.44562 1.92029,-0.232317 7.9087,-0.317444 9.93789,-0.141268 19.70805,1.711057 36.18554,13.720713 43.16382,31.460072 0.40115,1.01976 0.72937,1.97646 0.72937,2.12599 0,0.15818 -0.12294,0.32361 -0.29399,0.39559 -0.56471,0.23766 -26.42892,6.97346 -26.81135,6.98246 -0.35071,0.008 -0.43977,-0.0886 -0.97993,-1.06577 -3.23121,-5.84539 -8.51026,-9.61576 -15.3585,-10.969274 -1.65825,-0.327744 -6.18052,-0.32972 -7.80042,-0.0034 -8.2898,1.669894 -14.52471,6.925404 -17.14426,14.451204 -0.87738,2.52063 -1.04866,3.63903 -1.04263,6.80772 0.005,2.36758 0.0487,3.00426 0.28154,4.0504 1.48806,6.68737 5.56514,11.93262 11.66003,15.00086 2.8064,1.41277 5.46433,2.14628 8.55772,2.36164 8.65114,0.60233 16.81613,-3.77753 20.79755,-11.15625 0.51358,-0.9518 0.69641,-1.18233 0.95927,-1.20952 0.17861,-0.0185 6.34674,1.51596 13.70694,3.40985 11.50644,2.96079 13.39573,3.48005 13.47876,3.70451 0.23526,0.63597 -2.49133,6.79332 -4.38403,9.90026 -4.25883,6.9911 -10.02921,12.69095 -17.13997,16.93048 -6.4066,3.81973 -13.58086,6.18515 -21.19067,6.98677 -2.28707,0.24092 -6.41846,0.33514 -8.54673,0.19493 z"
       id="path1"
       sodipodi:nodetypes="sssssssssssscsscscssssssssssss" /><path
       style="fill:#353854;stroke-width:0.67901"
       d="M 63.77607,170.6509 C 31.784392,168.34375 10.011375,138.84901 17.588653,108.08327 26.177713,73.209428 69.192913,58.460663 98.46576,80.352661 c 2.86129,2.139846 7.4083,6.467049 7.1481,6.802567 -0.0655,0.08438 -0.48117,0.613766 -0.92384,1.176414 -3.81813,4.85287 -7.996679,13.103358 -10.020333,19.784998 -0.568467,1.87695 -0.142789,1.57376 -3.421599,2.43704 -3.588879,0.94492 -3.279747,0.97476 -4.003931,-0.38655 -10.14854,-19.077282 -40.178577,-12.283676 -41.324532,9.34872 -1.195242,22.56279 31.345229,30.93208 41.557602,10.68846 0.20646,-0.40926 0.456281,-0.77516 0.555152,-0.81309 0.16066,-0.0617 1.726464,0.32398 10.82536,2.66614 2.557711,0.65838 10.596641,2.72395 14.176391,3.64256 2.4619,0.63176 2.4825,0.63955 2.4825,0.93962 0,0.13247 -0.19809,0.78764 -0.4402,1.45592 -7.47417,20.63104 -28.819234,34.17672 -51.30036,32.55544 z"
       id="path1-1"
       sodipodi:nodetypes="sssscsscsssssscs" /></g></svg>
