<?xml version="1.0" encoding="UTF-8" standalone="no"?>
<!-- Created with Inkscape (http://www.inkscape.org/) -->

<svg
   width="145.9817mm"
   height="148.03613mm"
   viewBox="0 0 145.9817 148.03613"
   version="1.1"
   id="svg1"
   xml:space="preserve"
   xmlns:inkscape="http://www.inkscape.org/namespaces/inkscape"
   xmlns:sodipodi="http://sodipodi.sourceforge.net/DTD/sodipodi-0.dtd"
   xmlns="http://www.w3.org/2000/svg"
   xmlns:svg="http://www.w3.org/2000/svg"><sodipodi:namedview
     id="namedview1"
     pagecolor="#ffffff"
     bordercolor="#000000"
     borderopacity="0.25"
     inkscape:showpageshadow="2"
     inkscape:pageopacity="0.0"
     inkscape:pagecheckerboard="0"
     inkscape:deskcolor="#d1d1d1"
     inkscape:document-units="mm"><inkscape:page
       x="0"
       y="0"
       width="145.9817"
       height="148.03613"
       id="page2"
       margin="0"
       bleed="0" /></sodipodi:namedview><defs
     id="defs1" /><g
     inkscape:label="Calque 1"
     inkscape:groupmode="layer"
     id="layer1"
     transform="translate(-28.199056,-73.975413)"><g
       id="g1"><path
         style="fill:#55668e"
         d="M 98.665416,221.91512 C 83.031307,220.88508 68.183487,215.29218 56.161551,205.9047 41.566194,194.50773 31.931259,178.30133 29.071204,160.3375 c -0.505269,-3.17356 -0.762663,-6.29918 -0.847766,-10.2947 -0.232396,-10.91081 1.185448,-19.59099 4.726157,-28.93399 1.262394,-3.33113 4.228452,-9.22814 6.207241,-12.34101 5.513696,-8.6737 13.086379,-16.407801 21.548415,-22.007724 10.309785,-6.82271 21.538336,-10.911197 34.1599,-12.438143 2.828079,-0.342138 11.647399,-0.467505 14.635849,-0.208048 29.0247,2.519928 53.29163,20.206942 63.56877,46.332275 0.59079,1.50184 1.07417,2.9108 1.07417,3.13101 0,0.23296 -0.18106,0.4766 -0.43296,0.58261 -0.83167,0.35001 -38.92274,10.27003 -39.48595,10.28329 -0.51651,0.0121 -0.64767,-0.1305 -1.44318,-1.5696 -4.75871,-8.60869 -12.53334,-14.16144 -22.61897,-16.1548 -2.44216,-0.48268 -9.10225,-0.48559 -11.487924,-0.005 -12.208665,2.45931 -21.391016,10.19927 -25.248917,21.28274 -1.29214,3.71222 -1.5444,5.35932 -1.535519,10.02596 0.0066,3.4868 0.07181,4.42447 0.414642,5.96515 2.191508,9.84871 8.19596,17.57356 17.17211,22.09226 4.133068,2.08063 8.047494,3.16089 12.603218,3.47807 12.74082,0.88707 24.76566,-5.56331 30.62925,-16.43018 0.75636,-1.40174 1.02562,-1.74125 1.41274,-1.7813 0.26305,-0.0272 9.34705,2.2326 20.18666,5.0218 16.9459,4.36045 19.72832,5.12517 19.85061,5.45575 0.34647,0.93661 -3.66907,10.00474 -6.45651,14.58044 -6.27212,10.29601 -14.77034,18.69035 -25.24259,24.93407 -9.43521,5.62543 -20.00098,9.10906 -31.2082,10.28963 -3.36824,0.35481 -9.45267,0.49358 -12.587034,0.28708 z"
         id="path1"
         sodipodi:nodetypes="sssssssssssscsscscssssssssssss" /></g></g></svg>
