<?xml version="1.0" encoding="UTF-8" standalone="no"?>
<!-- Created with Inkscape (http://www.inkscape.org/) -->

<svg
   width="146.4472mm"
   height="148.35036mm"
   viewBox="0 0 146.4472 148.35036"
   version="1.1"
   id="svg1"
   xml:space="preserve"
   xmlns:inkscape="http://www.inkscape.org/namespaces/inkscape"
   xmlns:sodipodi="http://sodipodi.sourceforge.net/DTD/sodipodi-0.dtd"
   xmlns="http://www.w3.org/2000/svg"
   xmlns:svg="http://www.w3.org/2000/svg"><sodipodi:namedview
     id="namedview1"
     pagecolor="#ffffff"
     bordercolor="#000000"
     borderopacity="0.25"
     inkscape:showpageshadow="2"
     inkscape:pageopacity="0.0"
     inkscape:pagecheckerboard="0"
     inkscape:deskcolor="#d1d1d1"
     inkscape:document-units="mm"
     showgrid="false"><inkscape:page
       x="0"
       y="0"
       width="146.4472"
       height="148.35036"
       id="page2"
       margin="0"
       bleed="0" /></sodipodi:namedview><defs
     id="defs1" /><g
     inkscape:label="Calque 1"
     inkscape:groupmode="layer"
     id="layer1"
     transform="translate(-33.110523,-68.701454)"><g
       id="g1"><path
         style="fill:#353854"
         d="M 103.35774,216.85852 C 56.242556,213.4607 24.176727,170.02284 35.33603,124.71314 47.985419,73.353305 111.3353,51.632319 154.44637,83.873376 c 4.21392,3.151421 10.91044,9.524233 10.52724,10.018361 -0.0964,0.124271 -0.70863,0.903916 -1.36057,1.732545 -5.62308,7.146978 -11.77697,19.297738 -14.75727,29.138008 -0.8372,2.76424 -0.21029,2.31772 -5.0391,3.5891 -5.28546,1.39161 -4.83019,1.43556 -5.89672,-0.56929 -14.94608,-28.095719 -59.172291,-18.09056 -60.859976,13.76816 -1.760272,33.22896 46.163136,45.55469 61.203226,15.74125 0.30406,-0.60273 0.67198,-1.1416 0.81759,-1.19747 0.23661,-0.0908 2.54262,0.47714 15.94286,3.92651 3.76683,0.96962 15.60602,4.01165 20.87803,5.36452 3.62572,0.93041 3.65606,0.94189 3.65606,1.38381 0,0.19509 -0.29173,1.15998 -0.64829,2.14418 -11.00746,30.38401 -42.44303,50.33316 -75.55171,47.94546 z"
         id="path1"
         sodipodi:nodetypes="sssscsscsssssscs" /></g></g></svg>
